PathFileType	4	(X/Y/Z)	Patient4_TMGait_0pt8_01_left_37.trc.trc
DataRate	CameraRate	NumFrames	NumMarkers	Units	OrigDataRate	OrigDataStartFrame	OrigNumFrames
85.889570552147	85.889570552147	4	33	mm	85.889570552147	18	       141
Frame#	Time	Sacral			L.Shoulder			Chest			R.Shoulder			Neck			R.ASIS			L.ASIS			R.Thigh.Superior			R.Thigh.Lateral			R.Thigh.Inferior			R.Patella			L.Thigh.Superior			L.Thigh.Lateral			L.Thigh.Inferior			L.Patella			L.Shank.Superior			L.Shank.Lateral			L.Shank.Inferior			R.Shank.Superior			R.Shank.Lateral			R.Shank.Inferior			R.Heel			R.Midfoot.Superior			R.Midfoot.Lateral			R.Toe			L.Heel			L.Midfoot.Lateral			L.Midfoot.Superior			L.Toe			L.Elbow			L.Wrist			R.Elbow			R.Wrist			
		X1	Y1	Z1	X2	Y2	Z2	X3	Y3	Z3	X4	Y4	Z4	X5	Y5	Z5	X6	Y6	Z6	X7	Y7	Z7	X8	Y8	Z8	X9	Y9	Z9	X10	Y10	Z10	X11	Y11	Z11	X12	Y12	Z12	X13	Y13	Z13	X14	Y14	Z14	X15	Y15	Z15	X16	Y16	Z16	X17	Y17	Z17	X18	Y18	Z18	X19	Y19	Z19	X20	Y20	Z20	X21	Y21	Z21	X22	Y22	Z22	X23	Y23	Z23	X24	Y24	Z24	X25	Y25	Z25	X26	Y26	Z26	X27	Y27	Z27	X28	Y28	Z28	X29	Y29	Z29	X30	Y30	Z30	X31	Y31	Z31	X32	Y32	Z32	X33	Y33	Z33	

18	41.077928571429	854.564619859395	1003.422712335777	532.151186126850	1004.316949779931	1427.081610944553	337.552786243608	1132.543500719237	1354.555613256880	478.320536663630	1081.376897039798	1426.823165523001	664.966426145394	1014.436008760342	1485.455376868565	496.213525326809	1086.855502196061	934.406782791043	627.225132772453	1048.966688964218	948.305620722722	354.096952972220	1073.541929659073	720.469847147541	602.889519426987	963.241136568265	631.368279262592	664.923328255341	1018.337600621515	563.914713742719	584.242607072288	997.316802875589	481.382123428893	588.344208787373	1124.742716511605	771.093823850773	377.613729631457	1078.964577391958	642.876337034681	293.171650110007	1190.845189312829	588.939506998705	346.812551167888	1223.252753681124	530.870715179188	339.639458762591	1214.880169205914	461.110589769101	329.269100794924	1164.641410742393	322.797030086849	282.045619501043	1271.552540196479	238.134329137027	325.677122459367	959.113350680193	399.690394355000	593.164233079793	878.486213270297	301.531383088810	653.153762175852	912.458721225817	205.318541911149	584.939618809397	766.995747538074	43.850239987718	548.533721086972	940.508319441976	97.529069785935	586.014936029057	850.485758625216	37.058958679963	622.629695548454	1058.909320822750	41.843653524956	611.355668294861	1220.894352942008	47.923899629789	368.155705713619	1289.540539034127	61.135073991430	284.089883542438	1349.153665014015	149.473453755702	299.517066756051	1484.926749671822	138.066370835548	266.914467097082	838.621211911541	1114.903597257879	252.471791913884	772.839430589681	864.151188043781	272.889040593186	1247.744235663270	1128.817296622300	766.229252137636	1486.320402400408	1187.287001452193	696.318591189881	
19	41.089571428571	854.182098549658	1002.182463527457	529.986629056150	1004.078480869377	1425.703392335547	335.787642922413	1132.170963002203	1353.048675145046	476.653031320365	1080.824126826557	1425.505185038239	663.076363229778	1013.988878254272	1483.930014394061	494.464941940248	1086.202374693653	932.667600821092	625.824353109105	1049.106328675891	946.461452541182	352.521315860612	1071.568836898848	718.594318516092	601.520608390100	960.665905874245	630.300995494042	663.753914155000	1015.024052094177	562.377515550772	582.980577720598	993.085608086267	479.757888293457	587.154972897580	1124.753233021210	769.227079680635	377.322044923199	1078.558210189400	640.418485932511	293.674050886371	1190.291120762529	586.754731636432	347.199387070144	1222.519872073348	528.398992812199	340.182745979440	1213.761704092127	458.305172217143	330.389806003328	1162.562941024216	319.929766765920	285.036664865950	1269.328790875093	235.308552059906	328.687804519786	953.911150242022	398.401915698738	592.276047320206	872.252848487029	301.351085019685	652.647717476279	904.676061481346	204.635727803362	584.548859787533	757.652367026797	43.982277216203	548.624608719064	931.064738988626	97.306577820925	585.809359974344	841.126091672381	37.048074710204	622.722680891994	1049.537276631029	41.622124375583	611.432131283542	1218.067236495495	46.491934370152	373.431047091134	1285.846358436904	58.469338458923	288.560377306355	1346.554794485335	145.849317573000	302.886890134660	1481.615323447835	132.658671891868	268.979664895848	832.623426840641	1117.420402389798	252.536466196859	761.005551297019	868.336160333974	274.386403763304	1252.734549270364	1131.811272288979	763.112810799957	1486.989643192995	1202.609356116628	691.520122859215	
20	41.101214285714	853.946982230357	1000.896078472429	527.597720480419	1003.874903317117	1424.324815085441	333.861959640789	1131.838161194516	1351.606929530143	474.850330314472	1080.244680489074	1424.222985341681	661.053225548901	1013.571066218696	1482.429884144038	492.556249648081	1085.710255126921	930.942043572188	624.243848967260	1049.436486328515	944.699902120272	350.749151977334	1070.011441861820	716.751797441120	600.033836625518	958.544482551262	629.171014285525	662.367496917260	1012.336827955466	560.767343919181	581.628106151505	989.426788436375	478.006868176047	585.830162347791	1125.218066412035	767.604141286061	376.837414596858	1078.595011708013	638.063821670424	294.322909524014	1190.154041449272	584.740005973820	347.718866997399	1222.047759573833	525.674512790038	340.937866485655	1212.533057970414	455.021160126842	331.786212248390	1159.406845777337	316.974440150780	288.305733459633	1265.251594749886	231.628345028241	332.220563440747	949.225437122544	397.001625775865	591.257286900251	866.339887684300	301.214554972998	651.971095394499	897.100457708154	203.928242457192	584.110807293904	748.346531410245	44.257974328113	548.723593103897	921.673865495078	97.092215274909	585.594612056443	831.801683648927	37.084438887356	622.811972182838	1040.187599791963	41.328924548320	611.530033721254	1211.704228854330	44.899222941856	378.976836760169	1278.809028061963	55.205925552165	293.418492741541	1341.407391648944	140.866287002167	307.005624770494	1475.596974274602	124.612411274399	271.917213270264	827.552379709818	1119.536919256167	252.445977834928	750.675305186626	872.058721358714	275.530956818839	1257.075429859631	1134.615018548586	760.093480013466	1486.673885148968	1216.589757463668	686.988428596379	
21	41.112857142857	853.907544640197	999.588236392239	524.999533169851	1003.712713434835	1422.969974159370	331.782234591637	1131.556162113722	1350.265959508896	472.920606130814	1079.642149584919	1423.000411369005	658.914108423017	1013.193596128769	1480.988165952000	490.493983663929	1085.390794069016	929.256042918714	622.490251889663	1049.978677201474	943.054889489434	348.792982460508	1068.819259926905	714.960907525021	598.472350441004	956.767127988405	628.033002681017	660.781253791566	1010.177236664159	559.111377128298	580.229574399783	986.254012578425	476.161153938601	584.404715265783	1126.065415056736	766.149203899673	376.126339513746	1078.928266674650	635.808390191996	295.048240254320	1190.292233891336	582.839362418884	348.352817703444	1221.672718323342	522.731106646893	341.955165406907	1211.166006893007	451.381603325682	333.409913927486	1155.451346775659	313.978586176475	291.637752134736	1259.739710300600	227.313844930355	336.093975083692	944.962539416681	395.544645144005	590.133940114094	860.667218635259	301.170960047077	651.144801636586	889.696717237474	203.252230356902	583.649715760361	739.080289363748	44.724038014043	548.840715669037	912.355527452407	96.910119276636	585.398150387857	822.515309964484	37.190624386899	622.900921890896	1030.862036769511	40.969321218963	611.647660319444	1202.507810961749	43.222210455296	384.403744786181	1269.227216721702	51.588575979450	298.368982440480	1334.323868356484	134.877980305899	311.716762360846	1467.562874773296	114.547848503909	275.746243245498	823.414269264981	1121.208320709118	252.124446597411	741.924569727008	875.227190560108	276.261330558353	1260.739495086976	1137.156223854744	757.207926933154	1485.486944574657	1229.177334247351	682.741336570456	
